<svg width="26" height="30" viewBox="0 0 26 30" fill="none" xmlns="http://www.w3.org/2000/svg">
<g clip-path="url(#clip0_40_26)">
<path d="M12.629 15C16.6151 15 19.8456 11.7539 19.8456 7.75C19.8456 3.74607 16.6151 0.5 12.629 0.5C8.64299 0.5 5.41244 3.74607 5.41244 7.75C5.41244 11.7539 8.64299 15 12.629 15ZM15.4875 17.7188H9.77059C4.37562 17.7188 0 22.1141 0 27.5346C0 28.6187 0.875011 29.4983 1.95412 29.4983H23.3051C24.3842 29.5 25.2581 28.6221 25.2581 27.5346C25.2581 22.1141 20.883 17.7188 15.4875 17.7188Z" fill="#FF8F52"/>
</g>
<defs>
<clipPath id="clip0_40_26">
<rect width="25.2581" height="29" fill="white" transform="translate(0 0.5)"/>
</clipPath>
</defs>
</svg>
