<svg width="20" height="21" viewBox="0 0 20 21" fill="none" xmlns="http://www.w3.org/2000/svg">
<path d="M18.35 4C18.6363 4.2861 18.8632 4.626 19.0177 5.00013C19.1722 5.37426 19.2511 5.77524 19.25 6.18V16.18C19.25 16.9978 18.9258 17.7822 18.3485 18.3614C17.7712 18.9406 16.9878 19.2674 16.17 19.27H3.83C3.0113 19.2647 2.22793 18.9358 1.65089 18.355C1.07384 17.7742 0.749983 16.9887 0.75 16.17V3.85C0.75 3.03313 1.0745 2.24972 1.65211 1.67211C2.22972 1.0945 3.01313 0.77 3.83 0.77H13.83C14.2348 0.768899 14.6357 0.847849 15.0099 1.00231C15.384 1.15676 15.7239 1.38368 16.01 1.67L18.35 4Z" stroke="#FF8F52" stroke-width="1.5" stroke-linecap="round" stroke-linejoin="round"/>
<path d="M5.89 12.05H14.11C14.6537 12.05 15.1751 12.266 15.5596 12.6504C15.944 13.0349 16.16 13.5563 16.16 14.1V19.24H3.83V14.11C3.82867 13.8391 3.88105 13.5706 3.98411 13.3201C4.08716 13.0696 4.23885 12.842 4.4304 12.6504C4.62196 12.4589 4.84957 12.3072 5.1001 12.2041C5.35063 12.1011 5.6191 12.0487 5.89 12.05V12.05Z" stroke="#FF8F52" stroke-width="1.5" stroke-linecap="round" stroke-linejoin="round"/>
<path d="M3.83 0.76001V5.18001C3.83 5.64149 4.01332 6.08406 4.33964 6.41038C4.66595 6.73669 5.10853 6.92001 5.57 6.92001H12.37C12.8315 6.92001 13.2741 6.73669 13.6004 6.41038C13.9267 6.08406 14.11 5.64149 14.11 5.18001V0.86001" stroke="#FF8F52" stroke-width="1.5" stroke-linecap="round" stroke-linejoin="round"/>
<path d="M11.03 3.32001V4.35001" stroke="#FF8F52" stroke-width="1.5" stroke-linecap="round" stroke-linejoin="round"/>
</svg>
